<?xml version="1.0" encoding="utf-8"?>
<!-- Generator: Adobe Illustrator 22.0.0, SVG Export Plug-In . SVG Version: 6.00 Build 0)  -->
<svg version="1.1" id="Слой_1" xmlns="http://www.w3.org/2000/svg" xmlns:xlink="http://www.w3.org/1999/xlink" x="0px" y="0px"
	 viewBox="0 0 512 512" style="enable-background:new 0 0 512 512;" xml:space="preserve">
<g id="layer101">
	<path d="M207.3,351.2c-4.6-1.7-8.6-5.1-10.5-9.1c-2-4.2-2-10.4,0-14.8c2-4.5,7.2-8.6,11.7-9.4c3.7-0.7,3-1.1-1.9-1.1
		c-2.7,0-5.5-0.2-6.2-0.5c-1.8-0.7-4-3-4.6-4.7c-1.1-3.4-0.7-5.1,3.6-13.8l4-8.2l-12-55.9c-6.6-30.7-12.1-56-12.2-56.2
		c-0.1-0.2-6.9-0.4-15-0.4c-9.4,0-15.3-0.2-16.1-0.5c-3.1-1.2-5.1-4.3-5.1-7.9s1.5-6,4.9-7.7c1.2-0.6,3.9-0.7,21-0.7
		c21.6,0,21.3,0,23.8,2.8c1.6,1.7,2.5,4.5,3.6,10.5l0.7,3.8l83.4,0.2l83.4,0.2l1.8,1.2c1,0.7,2.2,2,2.8,3.1l1.1,1.9l0.1,36.1
		c0.1,23.5,0,36.6-0.4,37.8c-0.7,2.6-2.3,4.6-4.4,5.7c-1.8,0.9-9.3,1.9-73.5,9.4c-39.4,4.6-71.6,8.4-71.8,8.6
		c-0.1,0.1,0.2,2.2,0.7,4.6c1,4.9,1,5.6-0.9,9.9c-0.7,1.6-1.3,3.2-1.3,3.5c0,0.4,18.9,0.5,64.2,0.6l64.2,0.1l1.6,1.1
		c2.7,1.9,3.7,3.8,3.7,7.2c0,2.7-0.1,3.1-1.4,4.7c-2.6,3.2-3.2,3.5-9.2,3.7c-5.3,0.2-5.9,0.5-2.3,1.1c3.7,0.6,7.8,3.5,10.2,7.2
		c2.2,3.3,3,6.3,2.8,10.4c-0.8,13.2-15.7,20.8-26.7,13.5c-9.2-6.1-10.4-19.3-2.4-26.8c2.6-2.4,5.6-4,8.3-4.4c1-0.1,1.9-0.4,2-0.6
		c0.1-0.2-26.1-0.4-59.8-0.4c-33,0-59.9,0.1-59.7,0.3c0.1,0.2,1.2,0.4,2.4,0.7c5.8,1.1,10.7,5.5,12.8,11.5c1.1,2.9,0.9,8.1-0.2,11.2
		c-1.9,4.9-6.4,9.2-11.3,10.7C214.6,352,209.5,352,207.3,351.2z"/>
</g>
</svg>
