<?xml version="1.0" encoding="utf-8"?>
<!-- Generator: Adobe Illustrator 22.0.0, SVG Export Plug-In . SVG Version: 6.00 Build 0)  -->
<svg version="1.1" id="Слой_1" xmlns="http://www.w3.org/2000/svg" xmlns:xlink="http://www.w3.org/1999/xlink" x="0px" y="0px"
	 viewBox="0 0 50 50" style="enable-background:new 0 0 50 50;" xml:space="preserve">
<g id="layer101">
	<path d="M31,32l-3-3.1l-1.7,0.8c-3.1,1.4-6.5,0.7-9-1.9c-1.6-1.7-2.2-3.4-1.9-6.3c0.2-2,0.4-2.7,1.3-3.8c1.6-1.9,3.3-3,5.3-3.3
		c3.5-0.5,6.8,1.3,8.3,4.6c1.2,2.5,1.2,4.9,0,7.1l-0.9,1.7l3.1,3.1c2.6,2.7,3,3.2,2.5,3.7c-0.3,0.3-0.6,0.6-0.7,0.6
		C34.1,35.1,32.7,33.7,31,32z M26,29.2c1.9-0.8,3.9-3.1,4.3-5c0.8-3.8-0.9-7.2-4.6-8.6c-3.9-1.7-8.6,0.6-9.8,4.6
		c-0.5,1.8-0.5,2.5,0,4.3C17.1,28.5,22.1,30.9,26,29.2z"/>
</g>
</svg>
